<?xml version="1.0" standalone="no"?>
<!DOCTYPE svg PUBLIC "-//W3C//DTD SVG 20010904//EN"
 "http://www.w3.org/TR/2001/REC-SVG-20010904/DTD/svg10.dtd">
<svg version="1.0" xmlns="http://www.w3.org/2000/svg"
 width="200.000000pt" height="200.000000pt" viewBox="0 0 200.000000 200.000000"
 preserveAspectRatio="xMidYMid meet">
<metadata>
Created by potrace 1.15, written by Peter Selinger 2001-2017
</metadata>
<g transform="translate(0.000000,200.000000) scale(0.100000,-0.100000)"
fill="#000000" stroke="none">
<path d="M832 1986 c-219 -42 -385 -129 -537 -281 -130 -129 -215 -277 -263
-454 -33 -127 -37 -342 -8 -466 90 -385 376 -671 761 -761 116 -27 330 -26
445 3 372 94 649 371 743 743 29 115 30 329 3 445 -88 379 -366 662 -741 756
-105 26 -304 34 -403 15z m223 -743 c96 -120 178 -228 181 -241 5 -18 -29 -69
-166 -252 -124 -166 -178 -230 -192 -230 -26 0 -136 79 -144 103 -4 13 32 68
125 193 l132 174 -136 167 c-74 92 -135 175 -135 184 0 20 117 118 142 119 10
0 88 -89 193 -217z"/>
</g>
</svg>
